HIERARCHY
ROOT Hips
{
  OFFSET 131.481 97.9271 -207.785
  CHANNELS 6 Xposition Yposition Zposition Zrotation Xrotation Yrotation
  JOINT RightUpLeg
  {
    OFFSET -8.9458 -8.66707 0.101652
    CHANNELS 3 Zrotation Xrotation Yrotation
    JOINT RightLeg
    {
      OFFSET 0 -44.4227 1.3727
      CHANNELS 3 Zrotation Xrotation Yrotation
      JOINT RightFoot
      {
        OFFSET 0.253549 -42.0924 -1.46059
        CHANNELS 3 Zrotation Xrotation Yrotation
        JOINT RightToes
        {
          OFFSET 0.04 -4.41509 8.4991
          CHANNELS 3 Zrotation Xrotation Yrotation
          End Site
          {
            OFFSET -0.08 -0.137448 9.77979
          }
        }
      }
    }
  }
  JOINT Spine
  {
    OFFSET 0 11.8905 0
    CHANNELS 3 Zrotation Xrotation Yrotation
    JOINT Spine1
    {
      OFFSET 0 25.6574 0.127663
      CHANNELS 3 Zrotation Xrotation Yrotation
      JOINT HEad
      {
        OFFSET 0 8.73416 0.011341
        CHANNELS 3 Zrotation Xrotation Yrotation
        End Site
        {
          OFFSET -0.29 12.7742 2.51395
        }
      }
      JOINT LeftShoulder1
      {
        OFFSET 8.99 -0.362252 -0.22
        CHANNELS 3 Zrotation Xrotation Yrotation
        JOINT LeftArm
        {
          OFFSET 10.2827 -0.00338 0.322123
          CHANNELS 3 Zrotation Xrotation Yrotation
          JOINT LeftForeArm
          {
            OFFSET 32.7669 0.099144 -1.42434
            CHANNELS 3 Zrotation Xrotation Yrotation
            JOINT LeftHand
            {
              OFFSET 27.5643 0.085362 1.02216
              CHANNELS 3 Zrotation Xrotation Yrotation
              End Site
              {
                OFFSET 16.7443 -0.6 1.50291
              }
            }
          }
        }
      }
      JOINT RightShoulder
      {
        OFFSET -8.99 -0.362252 -0.22
        CHANNELS 3 Zrotation Xrotation Yrotation
        JOINT RightArm
        {
          OFFSET -10.2827 -0.00338 0.322123
          CHANNELS 3 Zrotation Xrotation Yrotation
          JOINT RightForeArm
          {
            OFFSET -32.8971 0.099144 -1.42434
            CHANNELS 3 Zrotation Xrotation Yrotation
            JOINT RightHand
            {
              OFFSET -27.4921 0.085362 1.02216
              CHANNELS 3 Zrotation Xrotation Yrotation
              End Site
              {
                OFFSET -16.6312 -0.6 1.50291
              }
            }
          }
        }
      }
    }
  }
  JOINT LeftUpLeg
  {
    OFFSET 8.9458 -8.66707 0.101652
    CHANNELS 3 Zrotation Xrotation Yrotation
    JOINT LeftLeg
    {
      OFFSET 0 -44.4227 1.3727
      CHANNELS 3 Zrotation Xrotation Yrotation
      JOINT LeftFoot
      {
        OFFSET -0.253549 -42.0924 -1.46059
        CHANNELS 3 Zrotation Xrotation Yrotation
        JOINT LeftToes
        {
          OFFSET -0.04 -4.41509 8.4991
          CHANNELS 3 Zrotation Xrotation Yrotation
          End Site
          {
            OFFSET 0.08 -0.047448 9.77979
          }
        }
      }
    }
  }
}
MOTION
Frames:	12
Frame Time:	0.0166667
76.4079 93.8975 -250.413 16.3063 4.43201 114.681 -26.9041 1.01557 17.0098 42.5356 36.1995 -41.5625 -31.8077 1.89778 -1.54541 0.0462048 0.000533403 0.662642 4.02428 24.7128 -1.00901 5.85967e-008 -5.05119e-008 -8.58662e-007 1.28944 10.2292 12.1511 3.97569e-016 -2.18663e-015 -3.18055e-015 -176.585 -63.6852 -147.138 -92.7654 60.5283 -23.1516 19.0032 16.4699 -16.1117 14.4975 5.75396 -0.604351 102.308 -9.47822 70.7821 35.3183 54.9822 84.7961 17.1521 20.6661 2.26763 28.1892 -10.2417 -8.96109 -30.6724 17.0051 63.8221 -5.66126 -3.84707 -0.705652 -1.18446e-009 1.5602e-007 -4.87131e-009 
76.3637 94.3479 -251.731 16.1784 4.72103 114.929 -27.1209 0.3248 17.6269 43.3264 35.9956 -42.6157 -31.7499 1.95217 -1.55354 0.0462048 0.000533403 0.662642 3.08812 24.8611 -0.812614 5.85967e-008 -5.05119e-008 -8.58662e-007 0.871546 9.90464 12.215 -2.20695e-032 3.97569e-016 3.18055e-015 -175.95 -63.2665 -146.442 -93.6233 60.7491 -22.5446 19.1156 16.5873 -16.0835 15.0363 5.72882 -0.682181 102.062 -9.82289 70.8675 35.455 54.9928 84.9514 17.1033 20.5842 2.33998 27.904 -9.28861 -7.5424 -31.6138 16.0115 63.0785 -3.761 -3.87659 -0.59258 -1.18447e-009 1.5602e-007 -4.87131e-009 
76.3415 94.7399 -253.008 16.0536 5.00451 115.226 -27.2434 -0.353225 18.1924 44.1496 35.7131 -43.5774 -31.6812 1.99469 -1.56438 0.0462048 0.000533403 0.662642 2.24825 24.9406 -0.681815 5.85967e-008 -5.05119e-008 -8.58662e-007 0.407407 9.66321 12.2634 7.95139e-016 -3.97569e-016 3.18055e-015 -175.404 -62.8713 -145.826 -94.4889 60.9157 -21.9055 19.2119 16.6694 -16.0402 15.4785 5.77288 -0.763077 101.92 -10.1394 70.9684 35.6319 54.9997 85.0171 17.0585 20.5178 2.41084 27.5126 -8.43892 -6.37033 -32.4132 15.1742 62.4624 -2.05699 -3.88894 -0.487633 -1.18446e-009 1.5602e-007 -4.87131e-009 
76.3398 95.0779 -254.233 15.9293 5.27692 115.559 -27.2721 -1.00716 18.703 44.9506 35.3177 -44.4241 -31.6029 2.02042 -1.5784 0.0462048 0.000533403 0.662642 1.49724 24.9634 -0.601176 5.85967e-008 -5.05119e-008 -8.58662e-007 -0.0885311 9.49288 12.2965 -2.20695e-032 -3.97569e-016 -3.18055e-015 -174.975 -62.4945 -145.311 -95.384 61.0191 -21.2169 19.289 16.7172 -15.9935 15.821 5.87726 -0.843809 101.88 -10.4299 71.0855 35.8395 55.0084 85.0046 17.037 20.4701 2.46874 27.0356 -7.70095 -5.4241 -33.0572 14.4862 61.9728 -0.554343 -3.88633 -0.39215 -1.18446e-009 1.5602e-007 -4.87131e-009 
76.3497 95.3592 -255.395 15.7891 5.53431 115.9 -27.2378 -1.39046 19.1741 44.9319 34.8959 -44.7443 -31.013 1.97034 -1.58173 0.0462048 0.000533403 0.662642 0.80846 24.9307 -0.536107 5.85967e-008 -5.05119e-008 -8.58662e-007 -0.601745 9.37912 12.3169 7.95139e-016 1.19271e-015 3.18055e-015 -174.688 -62.1298 -144.919 -96.3359 61.0545 -20.458 19.3424 16.7482 -15.9524 16.0649 6.03149 -0.920216 101.937 -10.689 71.2182 36.0582 55.0214 84.9302 17.021 20.4362 2.51161 26.4691 -7.08038 -4.66606 -33.5044 13.9254 61.5987 0.748889 -3.85848 -0.301659 -1.18447e-009 1.5602e-007 -4.87132e-009 
76.3642 95.563 -256.464 15.6201 5.76507 116.227 -27.1458 -1.41022 19.5939 44.0959 34.4257 -44.4976 -29.9243 1.84324 -1.56187 0.0462048 0.000533403 0.662642 0.164302 24.8439 -0.462907 5.85967e-008 -5.05119e-008 -8.58662e-007 -1.1171 9.30486 12.3295 -4.41391e-032 7.95139e-016 3.18055e-015 -174.566 -61.7647 -144.681 -97.3767 61.0199 -19.6029 19.375 16.7751 -15.9146 16.2133 6.22151 -0.988883 102.088 -10.903 71.3648 36.2668 55.0371 84.8041 17.0107 20.4108 2.53371 25.8438 -6.59131 -4.0633 -33.7566 13.4806 61.3384 1.85254 -3.80427 -0.216193 -1.18446e-009 1.5602e-007 -4.87132e-009 
76.3817 95.6873 -257.426 15.4146 5.96409 116.524 -26.9957 -1.09569 19.954 42.6654 33.823 -43.8081 -28.5278 1.6553 -1.52563 0.0462048 0.000533403 0.662642 -0.455835 24.7098 -0.361009 -0.000809975 -5.05119e-008 -8.58662e-007 -1.62116 9.25312 12.3402 1.59028e-015 -1.19271e-015 -6.36111e-015 -174.623 -61.3847 -144.627 -98.5299 60.9175 -18.6323 19.3886 16.8134 -15.8762 16.2746 6.43048 -1.05018 102.324 -11.0525 71.5232 36.4499 55.0504 84.6286 17.0032 20.3885 2.5348 25.1943 -6.25451 -3.58539 -33.8417 13.1515 61.1971 2.76638 -3.7255 -0.136766 -1.18447e-009 1.5602e-007 -4.87131e-009 
76.4296 96.1205 -258.236 14.4927 6.37525 116.85 -26.9018 -0.850646 19.8571 40.4704 33.6712 -42.1758 -26.6829 1.36905 -1.47202 0.0462048 0.000533403 0.662642 -0.950275 24.0126 -0.387428 0.0334504 -5.05119e-008 -8.58662e-007 -2.40854 9.48185 12.5775 0 1.59028e-015 -0 -175.955 -61.0986 -146.667 -100.242 61.0893 -18.0663 17.0852 22.0472 -15.7306 19.6592 6.38704 -0.305657 98.7149 -11.2526 72.5778 36.1945 54.4252 83.6978 10.2564 17.6983 5.14404 23.8292 -6.7688 -2.73834 -33.2211 13.8212 60.2693 8.03158 -3.60766 0.243571 -1.18446e-009 1.5602e-007 -4.87131e-009 
76.6248 96.4697 -258.797 12.9111 6.94448 117.229 -27.1432 -1.00268 19.4312 38.6394 33.7398 -40.0404 -20.3646 0.697788 -1.35596 0.0462048 0.000533403 0.662642 -1.29605 22.8078 -0.519337 0.0354205 -5.05119e-008 -8.58662e-007 -3.4049 9.93604 13.0529 -4.41391e-032 -7.95139e-016 -3.18055e-015 -178.421 -60.8242 -150.528 -102.367 61.5197 -17.8623 13.4898 29.282 -14.4011 25.281 6.33997 1.10827 92.2424 -11.3554 74.1815 35.3853 53.1787 82.4025 6.14071 15.9951 6.42259 21.9512 -7.83149 -1.69626 -32.1207 14.8655 58.9415 12.7387 -3.27127 0.611096 -1.18446e-009 1.5602e-007 -4.87131e-009 
76.9442 96.7917 -259.178 10.7228 7.61645 117.695 -27.4754 -1.53801 18.6222 37.0853 33.822 -37.3912 -12.1651 0.0367988 -1.10295 0.0462048 0.000533403 0.662642 -1.48046 21.1384 -0.714496 0.0348906 0.00144991 0.00125921 -4.63068 10.582 13.7593 -3.97569e-016 5.96354e-016 -3.18055e-015 178.022 -60.5039 -156.006 -104.575 62.1481 -18.133 8.63753 36.8042 -11.1305 32.2845 6.60267 3.15308 83.559 -11.4302 75.9671 35.8947 52.0009 80.3252 2.94801 15.9143 6.07747 19.6454 -9.76549 -0.227059 -30.7937 16.5591 57.1549 17.0456 -2.8342 0.904652 -1.18446e-009 1.5602e-007 -4.87131e-009 
77.4285 97.1439 -259.396 6.56694 8.53325 118.557 -27.9548 -3.16598 16.3764 34.1594 33.3004 -33.7118 -2.5038 -0.708172 -0.732717 0.0462048 0.000533403 0.662642 -0.985327 18.019 -1.08169 0.104092 0.019359 0.0214282 -6.75461 11.6552 15.1474 -1.39149e-015 -1.19271e-015 -3.18055e-015 170.492 -60.0096 -166.343 -106.612 63.4845 -19.624 1.99413 42.902 -1.59472 41.0457 8.69474 7.65125 71.2049 -15.8667 77.6553 43.7153 52.6831 75.8 1.25883 20.1208 2.07674 15.9921 -14.3004 2.49585 -28.4684 21.137 53.6876 19.5876 -2.26853 1.06972 -1.18446e-009 1.5602e-007 -4.87131e-009 
78.0464 97.5977 -259.475 2.93458 9.19075 119.364 -26.5807 -4.48584 13.6389 29.7717 32.3292 -29.2046 0.511469 -1.19884 -0.408319 0.0462048 0.000533403 0.662642 1.37568 15.457 -1.0437 0.0981529 0.0262288 0.0266286 -9.62278 12.9977 17.1362 1.59028e-015 -1.78906e-015 3.18055e-015 160.725 -58.93 -179.086 -106.911 64.9723 -22.5465 9.42407 25.6406 -5.29692 37.6014 7.98216 7.4103 69.4993 -15.8086 78.9092 49.0573 52.0337 73.557 -0.804869 21.9148 -0.197079 12.4451 -19.3549 5.72686 -25.0592 27.6316 48.2831 20.9784 -1.65058 1.13793 -1.18447e-009 1.5602e-007 -4.87131e-009 
